<svg width="95" height="40" fill="none" xmlns="http://www.w3.org/2000/svg">
    <path fill-rule="evenodd" clip-rule="evenodd" d="M.607 0A.604.604 0 0 0 0 .6v38.8c0 .331.272.6.607.6h93.787a.603.603 0 0 0 .606-.6V.6c0-.331-.271-.6-.606-.6H.607zm.606 38.8h92.575V1.2H1.213v37.6zm69.416-19.162c.14-2.248 1.962-4.225 4.181-4.547 1.934-.28 3.888.708 4.878 2.463.434.772.662 1.598.662 2.485-.001 2.345-1.659 4.422-3.957 4.892-1.588.324-2.993-.121-4.167-1.218-1.174-1.096-1.696-2.472-1.597-4.075zm4.816 6.44c3.442 0 6.137-2.67 6.137-6.078 0-3.409-2.695-6.078-6.137-6.078-3.341 0-6.06 2.738-6.06 6.103 0 3.338 2.719 6.053 6.06 6.053zm-10.726-.607a.608.608 0 0 1-1.217 0V14.529a.608.608 0 0 1 1.217 0V25.47zm-7.506.608a.609.609 0 0 0 .608-.608V14.529a.608.608 0 0 0-1.217 0V25.47c0 .335.273.608.609.608zm-5.687-3.528c0 1.913-1.736 3.528-3.79 3.528-1.504 0-2.786-.846-3.43-2.261a.54.54 0 0 1 .272-.72l.025-.01a.539.539 0 0 1 .71.258c.366.752 1.088 1.648 2.454 1.648 1.424 0 2.628-1.146 2.628-2.503 0-1.077-1.058-1.59-1.993-2.043l-.206-.101-2.074-1.096c-.862-.534-1.293-1.28-1.293-2.228 0-1.797 1.318-3.101 3.135-3.101 1.105 0 2.176.548 2.797 1.429a.542.542 0 0 1-.88.634c-.506-.659-1.148-.979-1.962-.979-1.099 0-1.96.873-1.96 1.986 0 1.036.992 1.506 1.867 1.92l.087.041 2.18 1.134c.016.009.032.017.047.027.946.602 1.386 1.377 1.386 2.437zM35.854 26.08c1.287 0 2.524-.532 3.313-1.428.83-1.024.83-2.077.83-3.296v-6.868a.566.566 0 0 0-1.132 0v6.653c0 1.026 0 2.088-.561 2.806-.556.72-1.66 1.047-2.45 1.047-.79 0-1.895-.327-2.451-1.048-.56-.717-.56-1.779-.56-2.805v-6.653a.566.566 0 0 0-1.133 0v6.868c0 1.219 0 2.272.835 3.301.784.891 2.021 1.423 3.309 1.423zm-21.227-.527a.613.613 0 0 1-1.072.26.606.606 0 0 1-.124-.508l2.292-11.008a.468.468 0 0 1 .894-.08l3.81 9.423 3.824-9.426a.466.466 0 0 1 .476-.29.467.467 0 0 1 .418.37l2.292 11.01a.609.609 0 0 1-.598.734.614.614 0 0 1-.598-.485l-1.785-8.626-3.595 8.86a.466.466 0 0 1-.434.292h-.001a.467.467 0 0 1-.434-.292l-3.58-8.858-1.785 8.624z" fill="#fff"/>
</svg>
